Coordinates
version=1
nRows=26
nColumns=24
inDegrees=yes

Units are S.I. units (second, meters, Newtons, ...)
Angles are in degrees.

endheader
time	pelvis_tilt	pelvis_list	pelvis_rotation	pelvis_tx	pelvis_ty	pelvis_tz	hip_flexion_r	hip_adduction_r	hip_rotation_r	knee_angle_r	ankle_angle_r	subtalar_angle_r	mtp_angle_r	hip_flexion_l	hip_adduction_l	hip_rotation_l	knee_angle_l	ankle_angle_l	subtalar_angle_l	mtp_angle_l	lumbar_extension	lumbar_bending	lumbar_rotation
      0.54200000	     -0.39265295	      4.74143291	      2.85024197	     -0.83012053	      0.97894145	      0.31206496	     25.96813986	     -3.98443770	     -9.04826519	     -7.73628135	      8.20505172	      0.57634236	      0.83298481	    -16.47086540	      8.31577313	      6.26409427	     -5.41566275	      9.24844315	     -8.37370420	      0.06352659	     -2.51061302	     -3.17303651	     -0.82481323
      0.54616667	     -0.42476370	      4.69718280	      2.83101415	     -0.82413965	      0.97837213	      0.31237227	     26.01441772	     -3.88241575	     -9.06775686	     -8.04216376	      7.92737144	      0.49116159	      6.15196216	    -16.52307224	      8.23626020	      6.02422690	     -5.95079035	      9.37801091	     -7.90779733	     -0.59914092	     -2.40745805	     -3.10478307	     -0.82270444
      0.55033333	     -0.44675881	      4.68283454	      2.81059909	     -0.81815512	      0.97785110	      0.31266288	     26.05646022	     -3.81011161	     -9.01269155	     -8.42736784	      7.74572087	      0.51500640	      6.17379323	    -16.59589729	      8.19490757	      5.90526812	     -6.46148923	      9.39535972	     -7.67977883	     -0.56836820	     -2.32500121	     -3.08196298	     -0.88769360
      0.55450000	     -0.48876020	      4.65774253	      2.77388774	     -0.81212429	      0.97732054	      0.31298671	     26.11579102	     -3.71593283	     -8.88896588	     -8.84755539	      7.48038850	      0.42228833	      6.20139877	    -16.63773090	      8.14648763	      5.76671681	     -6.98959138	      9.36693691	     -7.43263527	     -0.52201781	     -2.20446372	     -3.04082600	     -0.91352207
      0.55866667	     -0.51081800	      4.62120648	      2.73450166	     -0.80606264	      0.97685200	      0.31334129	     26.14431911	     -3.60479091	     -8.72163065	     -9.29626000	      7.20207586	      0.27374984	      6.24409559	    -16.67381157	      8.08293570	      5.60226567	     -7.56872457	      9.34172940	     -7.15457557	     -0.45014409	     -2.11711276	     -2.99234395	     -0.93865481
      0.56283333	     -0.56122227	      4.57037734	      2.70260941	     -0.79997368	      0.97638191	      0.31369860	     26.18651969	     -3.47566229	     -8.50241050	     -9.75082093	      6.92245100	      0.01927809	      6.32531468	    -16.62845099	      8.00363068	      5.38315406	     -8.24211231	      9.34162612	     -6.84005153	     -0.31037717	     -1.98396848	     -2.91695928	     -0.95189345
      0.56700000	     -0.59047722	      4.52216187	      2.64690511	     -0.79383953	      0.97595872	      0.31408364	     26.20824561	     -3.34029008	     -8.25518267	    -10.23739806	      6.53818260	     -0.24448161	      6.42128662	    -16.61301523	      7.93199840	      5.18040292	     -8.89713922	      9.25897823	     -6.57074122	     -0.12937317	     -1.87091819	     -2.84611268	     -0.95454347
      0.57116667	     -0.62956874	      4.46720809	      2.57612454	     -0.78767544	      0.97554853	      0.31450462	     26.24367851	     -3.18748757	     -7.95681431	    -10.76239448	      6.16707177	     -0.62868045	      6.57571033	    -16.56225788	      7.85519753	      4.95375308	     -9.59489311	      9.15803518	     -6.24876872	      0.17656393	     -1.74222224	     -2.77044076	     -0.96056201
      0.57533333	     -0.66882803	      4.43190073	      2.50952325	     -0.78148579	      0.97518422	      0.31489335	     26.27373194	     -3.06519931	     -7.68899966	    -11.29030926	      5.67485927	     -0.77952151	      6.63043290	    -16.51344223	      7.80688419	      4.82916735	    -10.28353599	      8.90082935	     -6.13352301	      0.30120833	     -1.62119165	     -2.71905888	     -0.96826544
      0.57950000	     -0.66357438	      4.32527398	      2.41443864	     -0.77525532	      0.97492155	      0.31540942	     26.19048533	     -2.81955718	     -7.21380086	    -11.70623794	      5.20050525	     -1.47826400	      7.08586272	    -16.43560204	      7.66786367	      4.47038072	    -11.10891869	      8.77863278	     -5.75366691	      1.37511823	     -1.53866393	     -2.57749084	     -0.94009749
      0.58366667	     -0.76521246	      4.29504187	      2.37013010	     -0.76906457	      0.97453605	      0.31580183	     26.30309924	     -2.71228060	     -6.94319541	    -12.32239496	      4.84212881	     -1.82249656	      7.29491329	    -16.21363006	      7.61195543	      4.26442612	    -11.98900729	      8.51880140	     -5.44062194	      1.93879657	     -1.33477718	     -2.54084658	     -0.93857750
      0.58783333	     -0.82058056	      4.22422899	      2.28507827	     -0.76282298	      0.97425674	      0.31626877	     26.31933221	     -2.52877987	     -6.55733214	    -12.84154693	      4.34228905	     -2.29641794	      7.48769154	    -16.02885744	      7.51897463	      4.01558098	    -12.88043792	      8.22993650	     -5.20550734	      2.54639738	     -1.17896037	     -2.44468984	     -0.91247315
      0.59200000	     -0.87588809	      4.14246200	      2.20485065	     -0.75655863	      0.97401583	      0.31673979	     26.33215540	     -2.33773874	     -6.18966483	    -13.37340919	      3.87622293	     -2.76499579	      7.67376268	    -15.80998179	      7.40841510	      3.75128894	    -13.83346668	      7.89994222	     -4.93765307	      3.25419346	     -1.02213864	     -2.33644787	     -0.89426526
      0.59616667	     -0.90609460	      4.07399270	      2.12349486	     -0.75029157	      0.97385141	      0.31718151	     26.31867282	     -2.17042831	     -5.86444865	    -13.91049745	      3.33021085	     -3.15681401	      8.61084100	    -15.60513553	      7.31773508	      3.55480330	    -14.78684087	      7.41311104	     -4.89011842	      7.56096085	     -0.90576938	     -2.24124790	     -0.86660151
      0.60033333	     -0.97968035	      3.99681332	      2.05356644	     -0.74402449	      0.97366796	      0.31762538	     26.34650386	     -2.00045772	     -5.55399817	    -14.45201790	      2.87941273	     -3.42062135	      8.60802365	    -15.29202575	      7.21003650	      3.31990977	    -15.85920593	      6.99743660	     -4.66516029	      7.62593246	     -0.72015984	     -2.14213778	     -0.85844659
      0.60450000	     -1.03624094	      3.89895949	      1.97188026	     -0.73775408	      0.97353897	      0.31811593	     26.34479542	     -1.79590247	     -5.19643071	    -14.98167260	      2.45972945	     -3.87318163	      8.60290973	    -14.96086007	      7.07251667	      3.04037157	    -16.98712311	      6.52566263	     -4.38755048	      7.76252745	     -0.56197536	     -2.01505104	     -0.83853113
      0.60866667	     -1.09362653	      3.79291176	      1.89295748	     -0.73149728	      0.97345591	      0.31862002	     26.34133615	     -1.58415913	     -4.84649891	    -15.51694146	      2.09097264	     -4.37292010	      8.59263678	    -14.59075221	      6.92056165	      2.76258573	    -18.16833842	      6.00782395	     -4.12470506	      7.97935119	     -0.40718738	     -1.88440462	     -0.81513858
      0.61283333	     -1.10156534	      3.63888157	      1.81967294	     -0.72521275	      0.97348802	      0.31915086	     26.25884748	     -1.31863274	     -4.49850972	    -16.02221029	      1.81866024	     -5.06142070	      8.55778057	    -14.24044711	      6.69862107	      2.44005202	    -19.39647975	      5.41717751	     -3.78758340	      8.58155304	     -0.31032689	     -1.68545312	     -0.78203604
      0.61700000	     -1.16380172	      3.54700537	      1.74591539	     -0.71898005	      0.97346052	      0.31962135	     26.26410836	     -1.14340958	     -4.23749033	    -16.57044027	      1.46250289	     -5.24615287	      8.53588023	    -13.79874089	      6.55912691	      2.20057879	    -20.66987762	      4.76590672	     -3.62734515	      8.84010078	     -0.14663618	     -1.57040520	     -0.77664269
      0.62116667	     -1.18074308	      3.38015614	      1.67322010	     -0.71274052	      0.97353329	      0.32016170	     26.19416472	     -0.87317203	     -3.93671141	    -17.09285337	      1.25793674	     -5.84098675	      8.05144743	    -13.36074915	      6.31455417	      1.89010696	    -22.00132687	      4.00627125	     -3.45708095	     13.97614207	     -0.04755079	     -1.36139709	     -0.72661632
      0.62533333	     -1.21007139	      3.25030303	      1.61266942	     -0.70654506	      0.97360610	      0.32066579	     26.15555835	     -0.66726882	     -3.73543304	    -17.64882489	      1.05781773	     -6.10060972	      8.03627754	    -12.86549707	      6.10471740	      1.60515002	    -23.40456638	      3.28404063	     -3.16175778	     14.04963284	      0.06394323	     -1.20539059	     -0.74561974
      0.62950000	     -1.23969220	      3.09839388	      1.56260600	     -0.70035668	      0.97373955	      0.32118231	     26.08292454	     -0.43462010	     -3.50933614	    -18.14243451	      0.92128325	     -6.39822415	      8.01173086	    -12.33799022	      5.86317866	      1.34371851	    -24.84422451	      2.43948400	     -2.93838733	     14.17114443	      0.18631958	     -1.03025352	     -0.73754186
      0.63366667	     -1.23987784	      2.92480582	      1.50352814	     -0.69422002	      0.97390127	      0.32171535	     25.99513008	     -0.18218380	     -3.32887516	    -18.67593204	      0.82243201	     -6.79370225	      7.96441912	    -11.80516648	      5.59024314	      1.06090194	    -26.33653437	      1.63788956	     -2.67241965	     14.39030325	      0.25152978	     -0.81647621	     -0.72513970
      0.63783333	     -1.23236892	      2.73384271	      1.48279554	     -0.68810014	      0.97414349	      0.32223354	     25.85740875	      0.07846048	     -3.17043786	    -19.13548350	      0.77808820	     -7.22205832	      7.86344537	    -11.24436392	      5.28266437	      0.82860244	    -27.86858400	      0.70923896	     -2.41776122	     14.83046205	      0.31570344	     -0.59756191	     -0.70554890
      0.64200000	     -1.24073454	      2.55769767	      1.41812603	     -0.68203954	      0.97433160	      0.32278317	     25.76842418	      0.32625531	     -3.04098982	    -19.64755404	      0.76900936	     -7.36732365	      7.79473068	    -10.63219444	      4.99683989	      0.55294567	    -29.44059737	     -0.23453247	     -2.25323327	     15.12606550	      0.38893847	     -0.38824781	     -0.69964328
      0.64616667	     -1.24395822	      2.36536365	      1.38032606	     -0.67602273	      0.97456409	      0.32331973	     25.64655131	      0.58426078	     -2.93010813	    -20.11091650	      0.81168683	     -7.58620116	      7.71381684	     -9.99365231	      4.68200015	      0.31700134	    -31.04656076	     -1.22428538	     -2.07529870	     15.44549543	      0.45388052	     -0.16576756	     -0.68742236
